<?xml version="1.0" standalone="no"?>
<!DOCTYPE svg PUBLIC "-//W3C//DTD SVG 20010904//EN"
 "http://www.w3.org/TR/2001/REC-SVG-20010904/DTD/svg10.dtd">
<svg version="1.0" xmlns="http://www.w3.org/2000/svg"
 width="512.000000pt" height="512.000000pt" viewBox="0 0 512.000000 512.000000"
 preserveAspectRatio="xMidYMid meet">
<metadata>
Created by potrace 1.14, written by Peter Selinger 2001-2017
</metadata>
<g transform="translate(0.000000,512.000000) scale(0.100000,-0.100000)"
fill="#000000" stroke="none">
<path d="M425 5100 c-72 -20 -111 -36 -133 -57 -7 -7 -20 -13 -28 -13 -16 0
-174 -156 -174 -172 0 -6 -6 -19 -14 -27 -8 -9 -27 -50 -42 -91 l-29 -75 -2
-2080 c-1 -1728 1 -2091 12 -2143 14 -65 54 -156 83 -191 10 -10 24 -29 32
-42 21 -31 107 -109 121 -109 4 0 14 -6 21 -12 24 -23 103 -57 168 -72 57 -14
321 -16 2158 -16 1394 0 2092 3 2092 10 0 5 6 10 13 10 15 0 151 64 173 82 22
18 126 122 141 140 30 39 75 142 88 199 11 54 13 403 12 2149 -2 1947 -3 2088
-20 2127 -28 71 -62 137 -82 163 -34 42 -135 142 -135 133 0 -4 -4 -3 -8 2
-20 27 -113 69 -198 89 -62 14 -282 15 -2124 15 -1966 -1 -2058 -2 -2125 -19z"/>
</g>
</svg>
